<?xml version="1.0" standalone="no"?><!DOCTYPE svg PUBLIC "-//W3C//DTD SVG 1.1//EN" "http://www.w3.org/Graphics/SVG/1.1/DTD/svg11.dtd"><svg t="1635446677169" class="icon" viewBox="0 0 1024 1024" version="1.1" xmlns="http://www.w3.org/2000/svg" p-id="10423" xmlns:xlink="http://www.w3.org/1999/xlink" width="200" height="200"><defs><style type="text/css"></style></defs><path d="M943 79.152c68.896 69.032 94.832 167.624 69.384 263.728-11.768 44.416-35.504 85.456-68.664 118.672-33.152 33.216-74.112 57.008-118.44 68.792a282.88 282.88 0 0 1-72.728 9.6c-71.072 0-139.008-27.536-190.48-79.12-68.904-69.024-94.84-167.616-69.384-263.72 11.76-44.416 35.504-85.456 68.656-118.68 33.152-33.216 74.112-57 118.44-68.792 95.92-25.504 194.32 0.488 263.216 69.52z m-70.704 160.84a29.968 29.968 0 0 1 29.944 30 29.968 29.968 0 0 1-29.944 30h-119.76a29.968 29.968 0 0 1-29.944-30v-120a29.968 29.968 0 0 1 29.936-30 29.968 29.968 0 0 1 29.944 30v90h89.824z m82.2 87.496c19.92-75.2-0.208-152.176-53.84-205.912-40.016-40.088-92.944-61.496-148.4-61.496-18.88 0-38.056 2.48-57.12 7.544-69.408 18.456-126.16 75.32-144.576 144.864-19.92 75.2 0.216 152.176 53.84 205.92 53.64 53.728 130.472 73.896 205.52 53.944 69.408-18.456 126.16-75.312 144.576-144.864z m37.568 452.504a29.968 29.968 0 0 1 29.936 30v184a29.968 29.968 0 0 1-29.936 30H89.824a29.968 29.968 0 0 1-29.944-30V102.416L51.12 111.2a29.896 29.896 0 0 1-42.344 0 30.04 30.04 0 0 1 0-42.424l59.888-60a29.944 29.944 0 0 1 42.344 0l59.88 60a30.04 30.04 0 0 1 0 42.424 29.904 29.904 0 0 1-42.344 0l-8.768-8.784v861.576h59.88v-634a29.968 29.968 0 0 1 29.944-30h183.64a29.968 29.968 0 0 1 29.944 30v634h59.88v-334a29.968 29.968 0 0 1 29.944-30H692.64a29.968 29.968 0 0 1 29.944 30v334h59.88v-154a29.968 29.968 0 0 1 29.944-30h179.648z m-628.768 184v-604h-123.76v604h123.76z m299.408 0v-304h-119.76v304h119.76z m299.416 0v-124h-119.76v124h119.76z" fill="#20A0FF" p-id="10424"></path></svg>